<svg xmlns="http://www.w3.org/2000/svg" xmlns:xlink="http://www.w3.org/1999/xlink" zoomAndPan="magnify" preserveAspectRatio="xMidYMid meet" version="1.0" viewBox="321.78 97.78 380.81 380.81"><defs><g/><clipPath id="fb57362090"><path d="M 321.777344 97.777344 L 702.589844 97.777344 L 702.589844 478.589844 L 321.777344 478.589844 Z M 321.777344 97.777344 " clip-rule="nonzero"/></clipPath><clipPath id="84159a26f9"><path d="M 484.558594 183.671875 L 539.285156 183.671875 L 539.285156 257.136719 L 484.558594 257.136719 Z M 484.558594 183.671875 " clip-rule="nonzero"/></clipPath></defs><g clip-path="url(#fb57362090)"><path fill="#ffffff" d="M 702.214844 287.996094 C 702.214844 291.109375 702.140625 294.21875 701.984375 297.328125 C 701.832031 300.4375 701.605469 303.542969 701.300781 306.640625 C 700.996094 309.738281 700.613281 312.828125 700.15625 315.90625 C 699.699219 318.984375 699.167969 322.050781 698.558594 325.105469 C 697.953125 328.160156 697.269531 331.195312 696.515625 334.214844 C 695.757812 337.234375 694.929688 340.234375 694.023438 343.214844 C 693.121094 346.191406 692.144531 349.148438 691.09375 352.078125 C 690.046875 355.007812 688.925781 357.914062 687.734375 360.789062 C 686.542969 363.664062 685.28125 366.511719 683.953125 369.324219 C 682.621094 372.140625 681.222656 374.917969 679.753906 377.664062 C 678.285156 380.410156 676.753906 383.117188 675.152344 385.789062 C 673.550781 388.457031 671.886719 391.085938 670.15625 393.675781 C 668.429688 396.265625 666.636719 398.808594 664.78125 401.308594 C 662.925781 403.808594 661.011719 406.261719 659.039062 408.667969 C 657.0625 411.074219 655.03125 413.433594 652.9375 415.738281 C 650.847656 418.046875 648.703125 420.300781 646.5 422.5 C 644.300781 424.703125 642.046875 426.847656 639.738281 428.9375 C 637.433594 431.03125 635.074219 433.0625 632.667969 435.039062 C 630.261719 437.011719 627.808594 438.925781 625.308594 440.78125 C 622.808594 442.636719 620.265625 444.429688 617.675781 446.15625 C 615.085938 447.886719 612.457031 449.550781 609.789062 451.152344 C 607.117188 452.753906 604.410156 454.285156 601.664062 455.753906 C 598.917969 457.222656 596.140625 458.621094 593.324219 459.953125 C 590.511719 461.28125 587.664062 462.542969 584.789062 463.734375 C 581.914062 464.925781 579.007812 466.046875 576.078125 467.09375 C 573.148438 468.144531 570.191406 469.121094 567.214844 470.023438 C 564.234375 470.929688 561.234375 471.757812 558.214844 472.515625 C 555.195312 473.269531 552.160156 473.953125 549.105469 474.558594 C 546.050781 475.167969 542.984375 475.699219 539.90625 476.15625 C 536.828125 476.613281 533.738281 476.992188 530.640625 477.300781 C 527.542969 477.605469 524.4375 477.832031 521.328125 477.984375 C 518.21875 478.140625 515.109375 478.214844 511.996094 478.214844 C 508.882812 478.214844 505.769531 478.140625 502.660156 477.984375 C 499.550781 477.832031 496.449219 477.605469 493.351562 477.300781 C 490.253906 476.992188 487.164062 476.613281 484.085938 476.15625 C 481.003906 475.699219 477.9375 475.167969 474.886719 474.558594 C 471.832031 473.953125 468.796875 473.269531 465.777344 472.515625 C 462.757812 471.757812 459.757812 470.929688 456.777344 470.023438 C 453.796875 469.121094 450.84375 468.144531 447.914062 467.09375 C 444.980469 466.046875 442.078125 464.925781 439.203125 463.734375 C 436.324219 462.542969 433.480469 461.28125 430.667969 459.953125 C 427.851562 458.621094 425.070312 457.222656 422.328125 455.753906 C 419.582031 454.285156 416.875 452.753906 414.203125 451.152344 C 411.53125 449.550781 408.902344 447.886719 406.316406 446.15625 C 403.726562 444.429688 401.183594 442.636719 398.683594 440.78125 C 396.179688 438.925781 393.726562 437.011719 391.320312 435.039062 C 388.914062 433.0625 386.558594 431.03125 384.25 428.9375 C 381.945312 426.847656 379.691406 424.703125 377.488281 422.5 C 375.289062 420.300781 373.144531 418.046875 371.050781 415.738281 C 368.960938 413.433594 366.929688 411.074219 364.953125 408.667969 C 362.980469 406.261719 361.0625 403.808594 359.210938 401.308594 C 357.355469 398.808594 355.5625 396.265625 353.832031 393.675781 C 352.105469 391.085938 350.4375 388.457031 348.839844 385.789062 C 347.238281 383.117188 345.703125 380.410156 344.238281 377.664062 C 342.769531 374.917969 341.371094 372.140625 340.039062 369.324219 C 338.707031 366.511719 337.445312 363.664062 336.253906 360.789062 C 335.0625 357.914062 333.945312 355.007812 332.894531 352.078125 C 331.847656 349.148438 330.871094 346.191406 329.964844 343.214844 C 329.0625 340.234375 328.234375 337.234375 327.476562 334.214844 C 326.71875 331.195312 326.039062 328.160156 325.429688 325.105469 C 324.824219 322.050781 324.292969 318.984375 323.835938 315.90625 C 323.378906 312.828125 322.996094 309.738281 322.691406 306.640625 C 322.386719 303.542969 322.15625 300.4375 322.003906 297.328125 C 321.851562 294.21875 321.777344 291.109375 321.777344 287.996094 C 321.777344 284.882812 321.851562 281.769531 322.003906 278.660156 C 322.15625 275.550781 322.386719 272.449219 322.691406 269.351562 C 322.996094 266.253906 323.378906 263.164062 323.835938 260.085938 C 324.292969 257.003906 324.824219 253.9375 325.429688 250.886719 C 326.039062 247.832031 326.71875 244.796875 327.476562 241.777344 C 328.234375 238.757812 329.0625 235.757812 329.964844 232.777344 C 330.871094 229.796875 331.847656 226.84375 332.894531 223.914062 C 333.945312 220.980469 335.0625 218.078125 336.253906 215.203125 C 337.445312 212.324219 338.707031 209.480469 340.039062 206.667969 C 341.371094 203.851562 342.769531 201.070312 344.238281 198.328125 C 345.703125 195.582031 347.238281 192.875 348.839844 190.203125 C 350.4375 187.53125 352.105469 184.902344 353.832031 182.316406 C 355.5625 179.726562 357.355469 177.183594 359.210938 174.683594 C 361.0625 172.179688 362.980469 169.726562 364.953125 167.320312 C 366.929688 164.914062 368.960938 162.558594 371.050781 160.25 C 373.144531 157.945312 375.289062 155.691406 377.488281 153.488281 C 379.691406 151.289062 381.945312 149.144531 384.25 147.050781 C 386.558594 144.960938 388.914062 142.929688 391.320312 140.953125 C 393.726562 138.980469 396.179688 137.0625 398.683594 135.210938 C 401.183594 133.355469 403.726562 131.5625 406.316406 129.832031 C 408.902344 128.105469 411.53125 126.4375 414.203125 124.839844 C 416.875 123.238281 419.582031 121.703125 422.328125 120.238281 C 425.070312 118.769531 427.851562 117.371094 430.667969 116.039062 C 433.480469 114.707031 436.324219 113.445312 439.203125 112.253906 C 442.078125 111.0625 444.980469 109.945312 447.914062 108.894531 C 450.84375 107.847656 453.796875 106.871094 456.777344 105.964844 C 459.757812 105.0625 462.757812 104.234375 465.777344 103.476562 C 468.796875 102.71875 471.832031 102.039062 474.886719 101.429688 C 477.9375 100.824219 481.003906 100.292969 484.085938 99.835938 C 487.164062 99.378906 490.253906 98.996094 493.351562 98.691406 C 496.449219 98.386719 499.550781 98.15625 502.660156 98.003906 C 505.769531 97.851562 508.882812 97.777344 511.996094 97.777344 C 515.109375 97.777344 518.21875 97.851562 521.328125 98.003906 C 524.4375 98.15625 527.542969 98.386719 530.640625 98.691406 C 533.738281 98.996094 536.828125 99.378906 539.90625 99.835938 C 542.984375 100.292969 546.050781 100.824219 549.105469 101.429688 C 552.160156 102.039062 555.195312 102.71875 558.214844 103.476562 C 561.234375 104.234375 564.234375 105.0625 567.214844 105.964844 C 570.191406 106.871094 573.148438 107.847656 576.078125 108.894531 C 579.007812 109.945312 581.914062 111.0625 584.789062 112.253906 C 587.664062 113.445312 590.511719 114.707031 593.324219 116.039062 C 596.140625 117.371094 598.917969 118.769531 601.664062 120.238281 C 604.410156 121.703125 607.117188 123.238281 609.789062 124.839844 C 612.457031 126.4375 615.085938 128.105469 617.675781 129.832031 C 620.265625 131.5625 622.808594 133.355469 625.308594 135.210938 C 627.808594 137.0625 630.261719 138.980469 632.667969 140.953125 C 635.074219 142.929688 637.433594 144.960938 639.738281 147.050781 C 642.046875 149.144531 644.300781 151.289062 646.5 153.488281 C 648.703125 155.691406 650.847656 157.945312 652.9375 160.25 C 655.03125 162.558594 657.0625 164.914062 659.039062 167.320312 C 661.011719 169.726562 662.925781 172.179688 664.78125 174.683594 C 666.636719 177.183594 668.429688 179.726562 670.15625 182.316406 C 671.886719 184.902344 673.550781 187.53125 675.152344 190.203125 C 676.753906 192.875 678.285156 195.582031 679.753906 198.328125 C 681.222656 201.070312 682.621094 203.851562 683.953125 206.667969 C 685.28125 209.480469 686.542969 212.324219 687.734375 215.203125 C 688.925781 218.078125 690.046875 220.980469 691.09375 223.914062 C 692.144531 226.84375 693.121094 229.796875 694.023438 232.777344 C 694.929688 235.757812 695.757812 238.757812 696.515625 241.777344 C 697.269531 244.796875 697.953125 247.832031 698.558594 250.886719 C 699.167969 253.9375 699.699219 257.003906 700.15625 260.085938 C 700.613281 263.164062 700.996094 266.253906 701.300781 269.351562 C 701.605469 272.449219 701.832031 275.550781 701.984375 278.660156 C 702.140625 281.769531 702.214844 284.882812 702.214844 287.996094 Z M 702.214844 287.996094 " fill-opacity="1" fill-rule="nonzero"/></g><path fill="#d8d8d8" d="M 691.1875 287.996094 C 691.1875 290.929688 691.117188 293.859375 690.972656 296.789062 C 690.828125 299.71875 690.613281 302.640625 690.324219 305.558594 C 690.039062 308.476562 689.679688 311.386719 689.25 314.289062 C 688.816406 317.1875 688.316406 320.078125 687.746094 322.953125 C 687.171875 325.832031 686.53125 328.691406 685.816406 331.535156 C 685.105469 334.378906 684.324219 337.207031 683.472656 340.011719 C 682.621094 342.820312 681.699219 345.601562 680.714844 348.363281 C 679.726562 351.125 678.671875 353.859375 677.546875 356.570312 C 676.425781 359.277344 675.238281 361.960938 673.984375 364.609375 C 672.730469 367.261719 671.410156 369.878906 670.027344 372.464844 C 668.648438 375.050781 667.203125 377.601562 665.695312 380.117188 C 664.1875 382.632812 662.617188 385.109375 660.988281 387.550781 C 659.359375 389.988281 657.671875 392.386719 655.925781 394.742188 C 654.175781 397.097656 652.375 399.40625 650.511719 401.675781 C 648.652344 403.941406 646.738281 406.160156 644.769531 408.332031 C 642.800781 410.507812 640.777344 412.628906 638.703125 414.703125 C 636.628906 416.777344 634.507812 418.800781 632.332031 420.769531 C 630.160156 422.738281 627.941406 424.652344 625.675781 426.511719 C 623.40625 428.375 621.097656 430.175781 618.742188 431.925781 C 616.386719 433.671875 613.988281 435.359375 611.550781 436.988281 C 609.109375 438.617188 606.632812 440.1875 604.117188 441.695312 C 601.601562 443.203125 599.050781 444.648438 596.464844 446.027344 C 593.878906 447.410156 591.261719 448.730469 588.609375 449.984375 C 585.960938 451.238281 583.277344 452.425781 580.570312 453.546875 C 577.859375 454.671875 575.125 455.726562 572.363281 456.714844 C 569.601562 457.699219 566.820312 458.621094 564.011719 459.472656 C 561.207031 460.324219 558.378906 461.105469 555.535156 461.816406 C 552.691406 462.53125 549.832031 463.171875 546.953125 463.746094 C 544.078125 464.316406 541.1875 464.816406 538.289062 465.25 C 535.386719 465.679688 532.476562 466.039062 529.558594 466.324219 C 526.640625 466.613281 523.71875 466.828125 520.789062 466.972656 C 517.859375 467.117188 514.929688 467.1875 511.996094 467.1875 C 509.0625 467.1875 506.132812 467.117188 503.203125 466.972656 C 500.273438 466.828125 497.351562 466.613281 494.433594 466.324219 C 491.511719 466.039062 488.601562 465.679688 485.703125 465.25 C 482.800781 464.816406 479.914062 464.316406 477.035156 463.746094 C 474.160156 463.171875 471.300781 462.53125 468.457031 461.816406 C 465.609375 461.105469 462.785156 460.324219 459.980469 459.472656 C 457.171875 458.621094 454.386719 457.699219 451.628906 456.714844 C 448.867188 455.726562 446.132812 454.671875 443.421875 453.546875 C 440.710938 452.425781 438.03125 451.238281 435.382812 449.984375 C 432.730469 448.730469 430.109375 447.410156 427.523438 446.027344 C 424.9375 444.648438 422.386719 443.203125 419.871094 441.695312 C 417.355469 440.1875 414.878906 438.617188 412.441406 436.988281 C 410.003906 435.359375 407.605469 433.671875 405.25 431.925781 C 402.894531 430.175781 400.585938 428.375 398.316406 426.511719 C 396.050781 424.652344 393.832031 422.738281 391.65625 420.769531 C 389.484375 418.800781 387.359375 416.777344 385.289062 414.703125 C 383.214844 412.628906 381.191406 410.507812 379.222656 408.332031 C 377.253906 406.160156 375.339844 403.941406 373.476562 401.675781 C 371.617188 399.40625 369.8125 397.097656 368.066406 394.742188 C 366.320312 392.386719 364.632812 389.988281 363.003906 387.550781 C 361.375 385.109375 359.804688 382.632812 358.296875 380.117188 C 356.789062 377.601562 355.34375 375.050781 353.960938 372.464844 C 352.578125 369.878906 351.261719 367.261719 350.007812 364.609375 C 348.753906 361.960938 347.566406 359.277344 346.445312 356.570312 C 345.320312 353.859375 344.265625 351.125 343.277344 348.363281 C 342.289062 345.601562 341.371094 342.820312 340.519531 340.011719 C 339.667969 337.207031 338.886719 334.378906 338.171875 331.535156 C 337.460938 328.691406 336.820312 325.832031 336.246094 322.953125 C 335.675781 320.078125 335.171875 317.1875 334.742188 314.289062 C 334.3125 311.386719 333.953125 308.476562 333.667969 305.558594 C 333.378906 302.640625 333.164062 299.71875 333.019531 296.789062 C 332.875 293.859375 332.804688 290.929688 332.804688 287.996094 C 332.804688 285.0625 332.875 282.132812 333.019531 279.203125 C 333.164062 276.273438 333.378906 273.351562 333.667969 270.429688 C 333.953125 267.511719 334.3125 264.601562 334.742188 261.703125 C 335.171875 258.800781 335.675781 255.914062 336.246094 253.035156 C 336.820312 250.160156 337.460938 247.300781 338.171875 244.457031 C 338.886719 241.609375 339.667969 238.785156 340.519531 235.980469 C 341.371094 233.171875 342.289062 230.386719 343.277344 227.628906 C 344.265625 224.867188 345.320312 222.132812 346.445312 219.421875 C 347.566406 216.710938 348.753906 214.03125 350.007812 211.378906 C 351.261719 208.730469 352.578125 206.109375 353.960938 203.523438 C 355.34375 200.9375 356.789062 198.386719 358.296875 195.871094 C 359.804688 193.355469 361.375 190.878906 363.003906 188.441406 C 364.632812 186.003906 366.320312 183.605469 368.066406 181.25 C 369.8125 178.894531 371.617188 176.582031 373.476562 174.316406 C 375.339844 172.050781 377.253906 169.832031 379.222656 167.65625 C 381.191406 165.484375 383.214844 163.359375 385.289062 161.289062 C 387.359375 159.214844 389.484375 157.191406 391.65625 155.222656 C 393.832031 153.253906 396.050781 151.339844 398.316406 149.476562 C 400.585938 147.617188 402.894531 145.8125 405.25 144.066406 C 407.605469 142.320312 410.003906 140.632812 412.441406 139.003906 C 414.878906 137.375 417.355469 135.804688 419.871094 134.296875 C 422.386719 132.789062 424.9375 131.34375 427.523438 129.960938 C 430.109375 128.578125 432.730469 127.261719 435.382812 126.007812 C 438.03125 124.753906 440.710938 123.566406 443.421875 122.441406 C 446.132812 121.320312 448.867188 120.265625 451.628906 119.277344 C 454.386719 118.289062 457.171875 117.371094 459.980469 116.519531 C 462.785156 115.667969 465.609375 114.886719 468.457031 114.171875 C 471.300781 113.460938 474.160156 112.816406 477.035156 112.246094 C 479.914062 111.675781 482.800781 111.171875 485.703125 110.742188 C 488.601562 110.3125 491.511719 109.953125 494.433594 109.664062 C 497.351562 109.378906 500.273438 109.164062 503.203125 109.019531 C 506.132812 108.875 509.0625 108.804688 511.996094 108.804688 C 514.929688 108.804688 517.859375 108.875 520.789062 109.019531 C 523.71875 109.164062 526.640625 109.378906 529.558594 109.664062 C 532.476562 109.953125 535.386719 110.3125 538.289062 110.742188 C 541.1875 111.171875 544.078125 111.675781 546.953125 112.246094 C 549.832031 112.816406 552.691406 113.460938 555.535156 114.171875 C 558.378906 114.886719 561.207031 115.667969 564.011719 116.519531 C 566.820312 117.371094 569.601562 118.289062 572.363281 119.277344 C 575.125 120.265625 577.859375 121.320312 580.570312 122.441406 C 583.277344 123.566406 585.960938 124.753906 588.609375 126.007812 C 591.261719 127.261719 593.878906 128.578125 596.464844 129.960938 C 599.050781 131.34375 601.601562 132.789062 604.117188 134.296875 C 606.632812 135.804688 609.109375 137.375 611.550781 139.003906 C 613.988281 140.632812 616.386719 142.320312 618.742188 144.066406 C 621.097656 145.8125 623.40625 147.617188 625.675781 149.476562 C 627.941406 151.339844 630.160156 153.253906 632.332031 155.222656 C 634.507812 157.191406 636.628906 159.214844 638.703125 161.289062 C 640.777344 163.359375 642.800781 165.484375 644.769531 167.65625 C 646.738281 169.832031 648.652344 172.050781 650.511719 174.316406 C 652.375 176.582031 654.175781 178.894531 655.925781 181.25 C 657.671875 183.605469 659.359375 186.003906 660.988281 188.441406 C 662.617188 190.878906 664.1875 193.355469 665.695312 195.871094 C 667.203125 198.386719 668.648438 200.9375 670.027344 203.523438 C 671.410156 206.109375 672.730469 208.730469 673.984375 211.378906 C 675.238281 214.03125 676.425781 216.710938 677.546875 219.421875 C 678.671875 222.132812 679.726562 224.867188 680.714844 227.628906 C 681.699219 230.386719 682.621094 233.171875 683.472656 235.980469 C 684.324219 238.785156 685.105469 241.609375 685.816406 244.457031 C 686.53125 247.300781 687.171875 250.160156 687.746094 253.035156 C 688.316406 255.914062 688.816406 258.800781 689.25 261.703125 C 689.679688 264.601562 690.039062 267.511719 690.324219 270.429688 C 690.613281 273.351562 690.828125 276.273438 690.972656 279.203125 C 691.117188 282.132812 691.1875 285.0625 691.1875 287.996094 Z M 691.1875 287.996094 " fill-opacity="1" fill-rule="nonzero"/><path fill="#ffffff" d="M 663.621094 287.996094 C 663.621094 290.476562 663.558594 292.957031 663.4375 295.433594 C 663.316406 297.914062 663.132812 300.386719 662.890625 302.855469 C 662.648438 305.328125 662.34375 307.789062 661.980469 310.242188 C 661.613281 312.699219 661.191406 315.140625 660.707031 317.574219 C 660.222656 320.007812 659.679688 322.429688 659.074219 324.835938 C 658.472656 327.246094 657.8125 329.636719 657.089844 332.007812 C 656.371094 334.382812 655.59375 336.738281 654.757812 339.078125 C 653.921875 341.414062 653.027344 343.726562 652.078125 346.019531 C 651.128906 348.3125 650.125 350.578125 649.0625 352.824219 C 648 355.066406 646.886719 357.28125 645.714844 359.472656 C 644.546875 361.660156 643.324219 363.816406 642.046875 365.945312 C 640.773438 368.074219 639.445312 370.171875 638.066406 372.234375 C 636.6875 374.296875 635.257812 376.324219 633.78125 378.316406 C 632.304688 380.3125 630.777344 382.265625 629.203125 384.183594 C 627.628906 386.101562 626.007812 387.980469 624.34375 389.820312 C 622.675781 391.660156 620.964844 393.457031 619.210938 395.210938 C 617.457031 396.964844 615.660156 398.675781 613.820312 400.339844 C 611.980469 402.007812 610.101562 403.628906 608.183594 405.203125 C 606.265625 406.777344 604.3125 408.304688 602.316406 409.78125 C 600.324219 411.257812 598.296875 412.6875 596.234375 414.066406 C 594.171875 415.445312 592.074219 416.773438 589.945312 418.046875 C 587.816406 419.324219 585.660156 420.546875 583.472656 421.714844 C 581.28125 422.886719 579.066406 424 576.824219 425.0625 C 574.582031 426.125 572.3125 427.128906 570.019531 428.078125 C 567.726562 429.027344 565.414062 429.921875 563.078125 430.757812 C 560.738281 431.59375 558.382812 432.371094 556.011719 433.089844 C 553.636719 433.8125 551.246094 434.472656 548.835938 435.074219 C 546.429688 435.679688 544.011719 436.222656 541.574219 436.707031 C 539.140625 437.191406 536.699219 437.613281 534.242188 437.980469 C 531.789062 438.34375 529.328125 438.648438 526.855469 438.890625 C 524.386719 439.132812 521.914062 439.316406 519.433594 439.4375 C 516.957031 439.558594 514.476562 439.621094 511.996094 439.621094 C 509.515625 439.621094 507.035156 439.558594 504.554688 439.4375 C 502.078125 439.316406 499.601562 439.132812 497.132812 438.890625 C 494.664062 438.648438 492.203125 438.34375 489.746094 437.980469 C 487.292969 437.613281 484.847656 437.191406 482.414062 436.707031 C 479.980469 436.222656 477.5625 435.679688 475.152344 435.074219 C 472.746094 434.472656 470.355469 433.8125 467.980469 433.089844 C 465.605469 432.371094 463.25 431.59375 460.914062 430.757812 C 458.578125 429.921875 456.265625 429.027344 453.972656 428.078125 C 451.679688 427.128906 449.410156 426.125 447.167969 425.0625 C 444.925781 424 442.707031 422.886719 440.519531 421.714844 C 438.332031 420.546875 436.171875 419.324219 434.046875 418.046875 C 431.917969 416.773438 429.820312 415.445312 427.757812 414.066406 C 425.695312 412.6875 423.667969 411.257812 421.671875 409.78125 C 419.679688 408.304688 417.722656 406.777344 415.804688 405.203125 C 413.886719 403.628906 412.007812 402.007812 410.171875 400.339844 C 408.332031 398.675781 406.535156 396.964844 404.78125 395.210938 C 403.027344 393.457031 401.316406 391.660156 399.648438 389.820312 C 397.984375 387.980469 396.363281 386.101562 394.789062 384.183594 C 393.214844 382.265625 391.6875 380.3125 390.210938 378.316406 C 388.730469 376.324219 387.304688 374.296875 385.925781 372.234375 C 384.546875 370.171875 383.21875 368.074219 381.941406 365.945312 C 380.667969 363.816406 379.445312 361.660156 378.273438 359.472656 C 377.105469 357.28125 375.988281 355.066406 374.929688 352.824219 C 373.867188 350.578125 372.863281 348.3125 371.914062 346.019531 C 370.964844 343.726562 370.070312 341.414062 369.234375 339.078125 C 368.398438 336.738281 367.621094 334.382812 366.898438 332.007812 C 366.179688 329.636719 365.519531 327.246094 364.914062 324.835938 C 364.3125 322.429688 363.769531 320.007812 363.285156 317.574219 C 362.800781 315.140625 362.375 312.699219 362.011719 310.242188 C 361.648438 307.789062 361.34375 305.328125 361.101562 302.855469 C 360.859375 300.386719 360.675781 297.914062 360.554688 295.433594 C 360.433594 292.957031 360.371094 290.476562 360.371094 287.996094 C 360.371094 285.515625 360.433594 283.035156 360.554688 280.554688 C 360.675781 278.078125 360.859375 275.601562 361.101562 273.132812 C 361.34375 270.664062 361.648438 268.203125 362.011719 265.746094 C 362.375 263.292969 362.800781 260.847656 363.285156 258.414062 C 363.769531 255.980469 364.3125 253.5625 364.914062 251.152344 C 365.519531 248.746094 366.179688 246.355469 366.898438 243.980469 C 367.621094 241.605469 368.398438 239.25 369.234375 236.914062 C 370.070312 234.578125 370.964844 232.265625 371.914062 229.972656 C 372.863281 227.679688 373.867188 225.410156 374.929688 223.167969 C 375.988281 220.925781 377.105469 218.707031 378.273438 216.519531 C 379.445312 214.332031 380.667969 212.171875 381.941406 210.046875 C 383.21875 207.917969 384.546875 205.820312 385.925781 203.757812 C 387.304688 201.695312 388.730469 199.667969 390.210938 197.671875 C 391.6875 195.679688 393.214844 193.722656 394.789062 191.804688 C 396.363281 189.886719 397.984375 188.007812 399.648438 186.171875 C 401.316406 184.332031 403.027344 182.535156 404.78125 180.78125 C 406.535156 179.027344 408.332031 177.316406 410.171875 175.648438 C 412.007812 173.984375 413.886719 172.363281 415.804688 170.789062 C 417.722656 169.214844 419.679688 167.6875 421.671875 166.210938 C 423.667969 164.730469 425.695312 163.304688 427.757812 161.925781 C 429.820312 160.546875 431.917969 159.21875 434.046875 157.941406 C 436.171875 156.667969 438.332031 155.445312 440.519531 154.273438 C 442.707031 153.105469 444.925781 151.988281 447.167969 150.929688 C 449.410156 149.867188 451.679688 148.863281 453.972656 147.914062 C 456.265625 146.964844 458.578125 146.070312 460.914062 145.234375 C 463.25 144.398438 465.605469 143.621094 467.980469 142.898438 C 470.355469 142.179688 472.746094 141.519531 475.152344 140.914062 C 477.5625 140.3125 479.980469 139.769531 482.414062 139.285156 C 484.847656 138.800781 487.292969 138.375 489.746094 138.011719 C 492.203125 137.648438 494.664062 137.34375 497.132812 137.101562 C 499.601562 136.859375 502.078125 136.675781 504.554688 136.554688 C 507.035156 136.433594 509.515625 136.371094 511.996094 136.371094 C 514.476562 136.371094 516.957031 136.433594 519.433594 136.554688 C 521.914062 136.675781 524.386719 136.859375 526.855469 137.101562 C 529.328125 137.34375 531.789062 137.648438 534.242188 138.011719 C 536.699219 138.375 539.140625 138.800781 541.574219 139.285156 C 544.011719 139.769531 546.429688 140.3125 548.835938 140.914062 C 551.246094 141.519531 553.636719 142.179688 556.011719 142.898438 C 558.382812 143.621094 560.738281 144.398438 563.078125 145.234375 C 565.414062 146.070312 567.726562 146.964844 570.019531 147.914062 C 572.3125 148.863281 574.582031 149.867188 576.824219 150.929688 C 579.066406 151.988281 581.28125 153.105469 583.472656 154.273438 C 585.660156 155.445312 587.816406 156.667969 589.945312 157.941406 C 592.074219 159.21875 594.171875 160.546875 596.234375 161.925781 C 598.296875 163.304688 600.324219 164.730469 602.316406 166.210938 C 604.3125 167.6875 606.265625 169.214844 608.183594 170.789062 C 610.101562 172.363281 611.980469 173.984375 613.820312 175.648438 C 615.660156 177.316406 617.457031 179.027344 619.210938 180.78125 C 620.964844 182.535156 622.675781 184.332031 624.34375 186.171875 C 626.007812 188.007812 627.628906 189.886719 629.203125 191.804688 C 630.777344 193.722656 632.304688 195.679688 633.78125 197.671875 C 635.257812 199.667969 636.6875 201.695312 638.066406 203.757812 C 639.445312 205.820312 640.773438 207.917969 642.046875 210.046875 C 643.324219 212.171875 644.546875 214.332031 645.714844 216.519531 C 646.886719 218.707031 648 220.925781 649.0625 223.167969 C 650.125 225.410156 651.128906 227.679688 652.078125 229.972656 C 653.027344 232.265625 653.921875 234.578125 654.757812 236.914062 C 655.59375 239.25 656.371094 241.605469 657.089844 243.980469 C 657.8125 246.355469 658.472656 248.746094 659.074219 251.152344 C 659.679688 253.5625 660.222656 255.980469 660.707031 258.414062 C 661.191406 260.847656 661.613281 263.292969 661.980469 265.746094 C 662.34375 268.203125 662.648438 270.664062 662.890625 273.132812 C 663.132812 275.601562 663.316406 278.078125 663.4375 280.554688 C 663.558594 283.035156 663.621094 285.515625 663.621094 287.996094 Z M 663.621094 287.996094 " fill-opacity="1" fill-rule="nonzero"/><g clip-path="url(#84159a26f9)"><path fill="#000000" d="M 523.21875 221.292969 L 523.21875 183.714844 L 500.628906 183.714844 L 500.628906 221.292969 L 484.558594 221.292969 L 511.925781 257.097656 L 539.289062 221.292969 Z M 523.21875 221.292969 " fill-opacity="1" fill-rule="nonzero"/></g><g fill="#000000" fill-opacity="1"><g transform="translate(429.986986, 343.516559)"><g><path d="M 2.734375 -61.71875 L 19.03125 -61.71875 C 23.96875 -61.71875 27.488281 -60.125 29.59375 -56.9375 C 31.707031 -53.75 32.765625 -49.09375 32.765625 -42.96875 C 32.765625 -36.832031 31.828125 -32.207031 29.953125 -29.09375 C 28.085938 -25.976562 24.738281 -24.421875 19.90625 -24.421875 L 14.875 -24.421875 L 14.875 0 L 2.734375 0 Z M 15.59375 -35.5625 C 17.070312 -35.5625 18.160156 -35.835938 18.859375 -36.390625 C 19.554688 -36.941406 20.007812 -37.726562 20.21875 -38.75 C 20.4375 -39.78125 20.546875 -41.253906 20.546875 -43.171875 C 20.546875 -45.765625 20.257812 -47.632812 19.6875 -48.78125 C 19.113281 -49.925781 17.960938 -50.5 16.234375 -50.5 L 14.875 -50.5 L 14.875 -35.5625 Z M 15.59375 -35.5625 "/></g></g></g><g fill="#000000" fill-opacity="1"><g transform="translate(463.892981, 343.516559)"><g><path d="M 2.734375 -61.71875 L 21.703125 -61.71875 C 24.710938 -61.71875 27.046875 -61.035156 28.703125 -59.671875 C 30.359375 -58.304688 31.472656 -56.390625 32.046875 -53.921875 C 32.617188 -51.453125 32.90625 -48.300781 32.90625 -44.46875 C 32.90625 -40.976562 32.445312 -38.25 31.53125 -36.28125 C 30.625 -34.3125 29.046875 -32.945312 26.796875 -32.1875 C 28.660156 -31.800781 30.007812 -30.863281 30.84375 -29.375 C 31.6875 -27.894531 32.109375 -25.882812 32.109375 -23.34375 L 31.96875 0 L 19.90625 0 L 19.90625 -24.140625 C 19.90625 -25.859375 19.566406 -26.957031 18.890625 -27.4375 C 18.222656 -27.914062 17.003906 -28.15625 15.234375 -28.15625 L 15.234375 0 L 2.734375 0 Z M 18.25 -38.875 C 19.96875 -38.875 20.828125 -40.738281 20.828125 -44.46875 C 20.828125 -46.09375 20.753906 -47.3125 20.609375 -48.125 C 20.472656 -48.945312 20.210938 -49.515625 19.828125 -49.828125 C 19.441406 -50.140625 18.890625 -50.296875 18.171875 -50.296875 L 15.296875 -50.296875 L 15.296875 -38.875 Z M 18.25 -38.875 "/></g></g></g><g fill="#000000" fill-opacity="1"><g transform="translate(498.158145, 343.516559)"><g><path d="M 2.734375 0 L 2.734375 -61.71875 L 27.4375 -61.71875 L 27.4375 -49.78125 L 15.296875 -49.78125 L 15.296875 -37.796875 L 26.9375 -37.796875 L 26.9375 -26.15625 L 15.296875 -26.15625 L 15.296875 -12 L 28.234375 -12 L 28.234375 0 Z M 2.734375 0 "/></g></g></g><g fill="#000000" fill-opacity="1"><g transform="translate(527.754061, 343.516559)"><g><path d="M 17.390625 0.578125 C 11.785156 0.578125 7.738281 -0.8125 5.25 -3.59375 C 2.757812 -6.375 1.515625 -10.851562 1.515625 -17.03125 L 1.515625 -23.0625 L 13.65625 -23.0625 L 13.65625 -15.375 C 13.65625 -12.3125 14.632812 -10.78125 16.59375 -10.78125 C 17.695312 -10.78125 18.460938 -11.101562 18.890625 -11.75 C 19.328125 -12.394531 19.546875 -13.484375 19.546875 -15.015625 C 19.546875 -17.023438 19.304688 -18.6875 18.828125 -20 C 18.347656 -21.320312 17.734375 -22.425781 16.984375 -23.3125 C 16.242188 -24.195312 14.914062 -25.570312 13 -27.4375 L 7.6875 -32.765625 C 3.570312 -36.785156 1.515625 -41.238281 1.515625 -46.125 C 1.515625 -51.394531 2.722656 -55.40625 5.140625 -58.15625 C 7.554688 -60.90625 11.085938 -62.28125 15.734375 -62.28125 C 21.285156 -62.28125 25.28125 -60.804688 27.71875 -57.859375 C 30.164062 -54.921875 31.390625 -50.316406 31.390625 -44.046875 L 18.828125 -44.046875 L 18.75 -48.28125 C 18.75 -49.09375 18.519531 -49.738281 18.0625 -50.21875 C 17.613281 -50.695312 16.984375 -50.9375 16.171875 -50.9375 C 15.210938 -50.9375 14.492188 -50.671875 14.015625 -50.140625 C 13.535156 -49.617188 13.296875 -48.898438 13.296875 -47.984375 C 13.296875 -45.972656 14.441406 -43.890625 16.734375 -41.734375 L 23.921875 -34.84375 C 25.597656 -33.21875 26.988281 -31.671875 28.09375 -30.203125 C 29.195312 -28.742188 30.082031 -27.019531 30.75 -25.03125 C 31.414062 -23.050781 31.75 -20.695312 31.75 -17.96875 C 31.75 -11.882812 30.632812 -7.269531 28.40625 -4.125 C 26.1875 -0.988281 22.515625 0.578125 17.390625 0.578125 Z M 17.390625 0.578125 "/></g></g></g><g fill="#000000" fill-opacity="1"><g transform="translate(560.86988, 343.516559)"><g><path d="M 17.390625 0.578125 C 11.785156 0.578125 7.738281 -0.8125 5.25 -3.59375 C 2.757812 -6.375 1.515625 -10.851562 1.515625 -17.03125 L 1.515625 -23.0625 L 13.65625 -23.0625 L 13.65625 -15.375 C 13.65625 -12.3125 14.632812 -10.78125 16.59375 -10.78125 C 17.695312 -10.78125 18.460938 -11.101562 18.890625 -11.75 C 19.328125 -12.394531 19.546875 -13.484375 19.546875 -15.015625 C 19.546875 -17.023438 19.304688 -18.6875 18.828125 -20 C 18.347656 -21.320312 17.734375 -22.425781 16.984375 -23.3125 C 16.242188 -24.195312 14.914062 -25.570312 13 -27.4375 L 7.6875 -32.765625 C 3.570312 -36.785156 1.515625 -41.238281 1.515625 -46.125 C 1.515625 -51.394531 2.722656 -55.40625 5.140625 -58.15625 C 7.554688 -60.90625 11.085938 -62.28125 15.734375 -62.28125 C 21.285156 -62.28125 25.28125 -60.804688 27.71875 -57.859375 C 30.164062 -54.921875 31.390625 -50.316406 31.390625 -44.046875 L 18.828125 -44.046875 L 18.75 -48.28125 C 18.75 -49.09375 18.519531 -49.738281 18.0625 -50.21875 C 17.613281 -50.695312 16.984375 -50.9375 16.171875 -50.9375 C 15.210938 -50.9375 14.492188 -50.671875 14.015625 -50.140625 C 13.535156 -49.617188 13.296875 -48.898438 13.296875 -47.984375 C 13.296875 -45.972656 14.441406 -43.890625 16.734375 -41.734375 L 23.921875 -34.84375 C 25.597656 -33.21875 26.988281 -31.671875 28.09375 -30.203125 C 29.195312 -28.742188 30.082031 -27.019531 30.75 -25.03125 C 31.414062 -23.050781 31.75 -20.695312 31.75 -17.96875 C 31.75 -11.882812 30.632812 -7.269531 28.40625 -4.125 C 26.1875 -0.988281 22.515625 0.578125 17.390625 0.578125 Z M 17.390625 0.578125 "/></g></g></g></svg>