<svg xmlns="http://www.w3.org/2000/svg" xmlns:xlink="http://www.w3.org/1999/xlink" zoomAndPan="magnify" preserveAspectRatio="xMidYMid meet" version="1.0" viewBox="318.45 94.45 387.11 387.11"><defs><clipPath id="4cebed5d87"><path d="M 318.445312 94.445312 L 705.257812 94.445312 L 705.257812 481.257812 L 318.445312 481.257812 Z M 318.445312 94.445312 " clip-rule="nonzero"/></clipPath><clipPath id="9b28b3c7d5"><path d="M 439.707031 166.324219 L 592.523438 166.324219 L 592.523438 423.390625 L 439.707031 423.390625 Z M 439.707031 166.324219 " clip-rule="nonzero"/></clipPath><clipPath id="8204c5cdc9"><path d="M 466.695312 166.324219 L 565.535156 166.324219 C 580.441406 166.324219 592.523438 178.40625 592.523438 193.3125 L 592.523438 396.40625 C 592.523438 411.308594 580.441406 423.390625 565.535156 423.390625 L 466.695312 423.390625 C 451.792969 423.390625 439.707031 411.308594 439.707031 396.40625 L 439.707031 193.3125 C 439.707031 178.40625 451.792969 166.324219 466.695312 166.324219 Z M 466.695312 166.324219 " clip-rule="nonzero"/></clipPath><clipPath id="bcbe52d1cd"><path d="M 410.285156 188 L 613.433594 188 L 613.433594 391.148438 L 410.285156 391.148438 Z M 410.285156 188 " clip-rule="nonzero"/></clipPath><clipPath id="0acd85c469"><path d="M 413.714844 184.570312 L 613.867188 184.570312 L 613.867188 384.722656 L 413.714844 384.722656 Z M 413.714844 184.570312 " clip-rule="nonzero"/></clipPath></defs><g clip-path="url(#4cebed5d87)"><path fill="#d8d8d8" d="M 512.003906 94.445312 C 405.09375 94.445312 318.445312 181.125 318.445312 287.996094 C 318.445312 394.925781 405.09375 481.550781 512.003906 481.550781 C 618.890625 481.550781 705.550781 394.925781 705.550781 287.996094 C 705.550781 181.125 618.890625 94.445312 512.003906 94.445312 " fill-opacity="1" fill-rule="nonzero"/></g><path fill="#737373" d="M 512.003906 123.5 C 421.144531 123.5 347.484375 197.15625 347.484375 287.996094 C 347.484375 378.859375 421.144531 452.515625 512.003906 452.515625 C 602.847656 452.515625 676.507812 378.859375 676.507812 287.996094 C 676.507812 197.15625 602.847656 123.5 512.003906 123.5 " fill-opacity="1" fill-rule="nonzero"/><path fill="#a6a6a6" d="M 512.003906 135.570312 C 421.144531 135.570312 347.484375 197.15625 347.484375 287.996094 C 347.484375 378.859375 421.144531 452.515625 512.003906 452.515625 C 602.847656 452.515625 676.507812 378.859375 676.507812 287.996094 C 676.507812 197.15625 602.847656 135.570312 512.003906 135.570312 " fill-opacity="1" fill-rule="nonzero"/><path fill="#737373" d="M 565.371094 304.011719 C 557.703125 294.863281 543.1875 287.394531 521.972656 281.660156 C 520.695312 281.292969 505.503906 276.53125 502.695312 275.25 C 496.9375 272.796875 492.652344 269.550781 489.8125 265.503906 C 488.324219 263.367188 487.230469 261.171875 486.507812 258.828125 C 486.5 258.75 486.460938 258.613281 486.441406 258.5 C 486.320312 258.191406 486.226562 257.847656 486.171875 257.542969 C 485.640625 255.660156 485.328125 253.6875 485.328125 251.648438 C 485.328125 238.269531 497.164062 227.457031 511.699219 227.457031 C 525.996094 227.457031 537.613281 237.898438 538.023438 250.949219 L 571.488281 246.578125 L 571.488281 234.484375 L 561.53125 221.617188 L 561.523438 221.644531 C 559.746094 219.167969 557.78125 216.871094 555.578125 214.773438 C 547.226562 206.867188 536.03125 202.027344 521.972656 200.34375 L 521.972656 182.125 L 502.695312 182.125 L 502.695312 200.34375 C 487.480469 201.867188 475.257812 207.550781 466.089844 217.4375 C 456.9375 227.289062 452.347656 239.496094 452.347656 254.007812 C 452.347656 268.363281 456.429688 280.539062 464.503906 290.613281 C 472.625 300.648438 485.339844 308.144531 502.695312 313.128906 C 505.472656 314.023438 520.207031 318.292969 521.972656 318.839844 C 529.917969 321.128906 535.667969 324.417969 539.15625 328.699219 C 542.652344 333.015625 544.421875 338.140625 544.421875 344.089844 C 544.421875 350.699219 542.332031 356.496094 538.164062 361.40625 C 533.988281 366.296875 528.589844 369.386719 521.972656 370.632812 C 514.597656 371.886719 506.414062 370.882812 502.695312 368.761719 C 497.929688 366.46875 493.582031 362.738281 489.671875 357.625 C 485.765625 352.464844 483.152344 346.375 481.703125 339.257812 L 447.050781 330.925781 L 447.050781 343.011719 C 449.714844 360.457031 455.824219 373.945312 465.371094 383.515625 C 474.929688 393.0625 487.363281 398.78125 502.695312 400.636719 L 502.695312 418.058594 L 521.972656 418.058594 L 521.972656 399.984375 C 539.222656 397.511719 552.691406 390.804688 562.398438 379.800781 C 572.074219 368.824219 576.921875 355.304688 576.921875 339.257812 C 576.921875 324.941406 573.085938 313.175781 565.371094 304.011719 " fill-opacity="1" fill-rule="nonzero"/><path fill="#d8d8d8" d="M 521.972656 269.570312 C 520.695312 269.199219 505.503906 264.429688 502.695312 263.171875 C 496.9375 260.703125 492.652344 257.457031 489.8125 253.414062 C 488.324219 251.285156 487.230469 249.074219 486.507812 246.75 C 486.5 246.65625 486.460938 246.523438 486.441406 246.417969 C 486.320312 246.097656 486.226562 245.78125 486.171875 245.464844 C 485.640625 243.574219 485.328125 241.601562 485.328125 239.558594 C 485.328125 226.175781 497.164062 215.375 511.699219 215.375 C 525.996094 215.375 537.613281 225.816406 538.023438 238.855469 L 571.488281 234.484375 C 569.1875 221.214844 563.863281 210.597656 555.578125 202.695312 C 547.226562 194.78125 536.03125 189.933594 521.972656 188.261719 L 521.972656 170.03125 L 502.695312 170.03125 L 502.695312 188.261719 C 487.480469 189.785156 475.257812 195.46875 466.089844 205.355469 C 456.9375 215.203125 452.347656 227.40625 452.347656 241.914062 C 452.347656 256.277344 456.429688 268.453125 464.503906 278.507812 C 472.625 288.566406 485.339844 296.074219 502.695312 301.046875 C 505.472656 301.929688 520.207031 306.210938 521.972656 306.765625 C 529.917969 309.039062 535.667969 312.324219 539.15625 316.609375 C 542.652344 320.933594 544.421875 326.050781 544.421875 331.988281 C 544.421875 338.609375 542.332031 344.398438 538.164062 349.320312 C 533.988281 354.214844 528.589844 357.296875 521.972656 358.539062 C 514.597656 359.800781 506.414062 358.796875 502.695312 356.675781 C 497.929688 354.375 493.582031 350.652344 489.671875 345.535156 C 485.765625 340.375 483.152344 334.292969 481.703125 327.171875 L 447.050781 330.925781 C 449.714844 348.359375 455.824219 361.863281 465.371094 371.425781 C 474.929688 380.96875 487.363281 386.699219 502.695312 388.554688 L 502.695312 405.96875 L 521.972656 405.96875 L 521.972656 387.890625 C 539.222656 385.417969 552.691406 378.707031 562.398438 367.710938 C 572.074219 356.738281 576.921875 343.222656 576.921875 327.171875 C 576.921875 312.851562 573.085938 301.082031 565.371094 291.917969 C 557.703125 282.773438 543.1875 275.308594 521.972656 269.570312 " fill-opacity="1" fill-rule="nonzero"/><path fill="#ffffff" d="M 452.453125 159.28125 C 418.988281 165.4375 414 170.4375 407.839844 203.898438 C 401.671875 170.4375 396.679688 165.4375 363.222656 159.28125 C 396.679688 153.117188 401.671875 148.125 407.839844 114.664062 C 414 148.125 418.988281 153.117188 452.453125 159.28125 " fill-opacity="1" fill-rule="nonzero"/><g clip-path="url(#9b28b3c7d5)"><g clip-path="url(#8204c5cdc9)"><path fill="#a6a6a6" d="M 439.707031 166.324219 L 592.523438 166.324219 L 592.523438 423.390625 L 439.707031 423.390625 Z M 439.707031 166.324219 " fill-opacity="1" fill-rule="nonzero"/></g></g><g clip-path="url(#bcbe52d1cd)"><path fill="#737373" d="M 550.136719 365.992188 L 600.992188 365.992188 L 613.703125 340.5625 L 613.703125 391.417969 L 537.421875 391.417969 L 537.421875 348.867188 C 563.464844 337.644531 581.921875 309.703125 581.921875 276.996094 C 581.921875 234.398438 550.613281 201.054688 511.996094 201.054688 C 473.375 201.054688 442.070312 234.398438 442.070312 276.996094 C 442.070312 309.695312 460.523438 337.644531 486.566406 348.867188 L 486.566406 391.417969 L 410.285156 391.417969 L 410.285156 340.5625 L 423 365.992188 L 473.851562 365.992188 L 473.851562 359.519531 C 436.582031 346.316406 410.285156 314.347656 410.285156 276.996094 C 410.285156 227.84375 455.820312 188 511.996094 188 C 568.171875 188 613.703125 227.84375 613.703125 276.996094 C 613.703125 314.34375 587.40625 346.316406 550.136719 359.519531 Z M 550.136719 365.992188 " fill-opacity="1" fill-rule="nonzero"/></g><g clip-path="url(#0acd85c469)"><path fill="#ffffff" d="M 551.214844 359.570312 L 601.214844 359.570312 L 613.714844 334.570312 L 613.714844 384.570312 L 538.714844 384.570312 L 538.714844 342.730469 C 564.320312 331.699219 582.464844 304.226562 582.464844 272.070312 C 582.464844 230.1875 551.683594 197.40625 513.714844 197.40625 C 475.746094 197.40625 444.964844 230.1875 444.964844 272.070312 C 444.964844 304.21875 463.109375 331.699219 488.714844 342.730469 L 488.714844 384.570312 L 413.714844 384.570312 L 413.714844 334.570312 L 426.214844 359.570312 L 476.214844 359.570312 L 476.214844 353.207031 C 439.570312 340.226562 413.714844 308.792969 413.714844 272.070312 C 413.714844 223.746094 458.484375 184.570312 513.714844 184.570312 C 568.945312 184.570312 613.714844 223.746094 613.714844 272.070312 C 613.714844 308.789062 587.859375 340.226562 551.214844 353.207031 Z M 551.214844 359.570312 " fill-opacity="1" fill-rule="nonzero"/></g></svg>