<svg xmlns="http://www.w3.org/2000/svg" xmlns:xlink="http://www.w3.org/1999/xlink" zoomAndPan="magnify" preserveAspectRatio="xMidYMid meet" version="1.0" viewBox="132.7 80.17 758.63 415.3"><defs><clipPath id="900cd6fd54"><path d="M 366 80.171875 L 406 80.171875 L 406 89 L 366 89 Z M 366 80.171875 " clip-rule="nonzero"/></clipPath><clipPath id="f93bd448ad"><path d="M 132.699219 81 L 891.328125 81 L 891.328125 495 L 132.699219 495 Z M 132.699219 81 " clip-rule="nonzero"/></clipPath><clipPath id="80c305cd17"><path d="M 618 80.171875 L 658 80.171875 L 658 89 L 618 89 Z M 618 80.171875 " clip-rule="nonzero"/></clipPath><clipPath id="af94b400e6"><path d="M 366 487 L 406 487 L 406 495.472656 L 366 495.472656 Z M 366 487 " clip-rule="nonzero"/></clipPath><clipPath id="f2525229f7"><path d="M 618 487 L 658 487 L 658 495.472656 L 618 495.472656 Z M 618 487 " clip-rule="nonzero"/></clipPath></defs><path fill="#ffffff" d="M 168.472656 92.765625 L 143.847656 117.390625 L 143.847656 210.289062 L 149.433594 204.703125 L 149.433594 143.820312 L 155.015625 138.238281 L 155.015625 122.019531 L 173.101562 103.917969 L 189.335938 103.917969 L 194.902344 98.347656 L 255.785156 98.347656 L 261.371094 92.765625 Z M 168.472656 92.765625 " fill-opacity="1" fill-rule="nonzero"/><g clip-path="url(#900cd6fd54)"><path fill="#ffffff" d="M 403.820312 88.304688 L 403.820312 88.167969 L 405.425781 88.167969 L 405.425781 81.175781 L 403.820312 81.175781 L 403.820312 80.523438 L 366.117188 80.523438 L 366.117188 88.820312 L 403.820312 88.820312 Z M 403.820312 88.304688 " fill-opacity="1" fill-rule="nonzero"/></g><path fill="#ffffff" d="M 416.59375 87.183594 L 416.59375 81.175781 L 411.011719 81.175781 L 411.011719 88.167969 L 416.59375 88.167969 Z M 416.59375 87.183594 " fill-opacity="1" fill-rule="nonzero"/><path fill="#ffffff" d="M 427.746094 87.183594 L 427.746094 81.175781 L 422.160156 81.175781 L 422.160156 88.167969 L 427.746094 88.167969 Z M 427.746094 87.183594 " fill-opacity="1" fill-rule="nonzero"/><path fill="#ffffff" d="M 438.898438 87.183594 L 438.898438 81.175781 L 433.328125 81.175781 L 433.328125 88.167969 L 438.898438 88.167969 Z M 438.898438 87.183594 " fill-opacity="1" fill-rule="nonzero"/><path fill="#ffffff" d="M 880.140625 210.289062 L 880.140625 117.390625 L 855.515625 92.765625 L 762.621094 92.765625 L 768.203125 98.347656 L 829.085938 98.347656 L 834.65625 103.917969 L 850.90625 103.917969 L 868.972656 122.019531 L 868.972656 138.238281 L 874.558594 143.820312 L 874.558594 204.703125 Z M 880.140625 210.289062 " fill-opacity="1" fill-rule="nonzero"/><g clip-path="url(#f93bd448ad)"><path fill="#ffffff" d="M 139.386719 115.539062 L 153.042969 101.882812 L 166.699219 88.230469 L 336.425781 88.230469 L 332.527344 84.332031 L 235.425781 84.332031 L 232.605469 81.613281 L 219.433594 81.613281 L 225.019531 87.199219 L 217.128906 87.199219 L 211.589844 81.613281 L 198.421875 81.613281 L 204.003906 87.183594 L 196.117188 87.183594 L 190.53125 81.613281 L 163.859375 81.613281 L 162.222656 83.238281 L 154.242188 91.21875 L 158.1875 95.164062 L 154.242188 99.109375 L 150.296875 95.164062 L 132.699219 112.761719 L 132.699219 172.25 L 138.28125 177.835938 L 138.28125 398.144531 L 132.699219 403.683594 L 132.699219 463.171875 L 150.296875 480.773438 L 154.242188 476.828125 L 158.1875 480.773438 L 154.242188 484.71875 L 163.84375 494.320312 L 190.53125 494.320312 L 196.117188 488.738281 L 204.003906 488.738281 L 198.421875 494.320312 L 211.589844 494.320312 L 217.175781 488.738281 L 225.0625 488.738281 L 219.480469 494.320312 L 232.664062 494.320312 L 235.457031 491.527344 L 332.558594 491.527344 L 336.457031 487.628906 L 166.621094 487.628906 L 139.3125 460.320312 Z M 891.292969 172.25 L 891.292969 112.761719 L 873.691406 95.164062 L 869.746094 99.109375 L 865.804688 95.164062 L 869.746094 91.21875 L 861.765625 83.238281 L 860.128906 81.613281 L 833.457031 81.613281 L 827.875 87.199219 L 819.984375 87.199219 L 825.566406 81.613281 L 812.398438 81.613281 L 806.816406 87.199219 L 798.925781 87.199219 L 804.554688 81.613281 L 791.371094 81.613281 L 788.578125 84.40625 L 691.476562 84.40625 L 687.578125 88.304688 L 857.367188 88.304688 L 884.675781 115.613281 L 884.675781 460.441406 L 871.023438 474.097656 L 857.367188 487.75 L 687.5625 487.75 L 691.464844 491.652344 L 788.5625 491.652344 L 791.355469 494.441406 L 804.539062 494.441406 L 798.957031 488.859375 L 806.84375 488.859375 L 812.429688 494.441406 L 825.550781 494.441406 L 819.984375 488.796875 L 827.875 488.796875 L 833.457031 494.382812 L 860.128906 494.382812 L 861.765625 492.742188 L 869.746094 484.761719 L 865.804688 480.816406 L 869.746094 476.871094 L 873.691406 480.816406 L 891.292969 463.21875 L 891.292969 403.683594 L 885.707031 398.101562 L 885.707031 177.835938 Z M 891.292969 172.25 " fill-opacity="1" fill-rule="nonzero"/></g><g clip-path="url(#80c305cd17)"><path fill="#ffffff" d="M 620.171875 88.304688 L 620.171875 88.820312 L 657.871094 88.820312 L 657.871094 80.523438 L 620.171875 80.523438 L 620.171875 81.175781 L 618.5625 81.175781 L 618.5625 88.167969 L 620.171875 88.167969 Z M 620.171875 88.304688 " fill-opacity="1" fill-rule="nonzero"/></g><path fill="#ffffff" d="M 612.980469 87.183594 L 612.980469 81.175781 L 607.394531 81.175781 L 607.394531 88.167969 L 612.980469 88.167969 Z M 612.980469 87.183594 " fill-opacity="1" fill-rule="nonzero"/><path fill="#ffffff" d="M 601.828125 87.183594 L 601.828125 81.175781 L 596.246094 81.175781 L 596.246094 88.167969 L 601.828125 88.167969 Z M 601.828125 87.183594 " fill-opacity="1" fill-rule="nonzero"/><path fill="#ffffff" d="M 590.660156 87.183594 L 590.660156 81.175781 L 585.09375 81.175781 L 585.09375 88.167969 L 590.660156 88.167969 Z M 590.660156 87.183594 " fill-opacity="1" fill-rule="nonzero"/><path fill="#ffffff" d="M 579.507812 88.167969 L 579.507812 81.175781 L 444.480469 81.175781 L 444.480469 88.167969 Z M 579.507812 88.167969 " fill-opacity="1" fill-rule="nonzero"/><path fill="#ffffff" d="M 143.847656 365.707031 L 143.847656 458.589844 L 168.472656 483.214844 L 261.371094 483.214844 L 255.785156 477.648438 L 194.902344 477.648438 L 189.335938 472.0625 L 173.101562 472.0625 L 155.015625 453.980469 L 155.015625 437.746094 L 149.433594 432.160156 L 149.433594 371.277344 Z M 143.847656 365.707031 " fill-opacity="1" fill-rule="nonzero"/><g clip-path="url(#af94b400e6)"><path fill="#ffffff" d="M 403.820312 487.675781 L 403.820312 487.160156 L 366.117188 487.160156 L 366.117188 495.457031 L 403.820312 495.457031 L 403.820312 494.804688 L 405.425781 494.804688 L 405.425781 487.8125 L 403.820312 487.8125 Z M 403.820312 487.675781 " fill-opacity="1" fill-rule="nonzero"/></g><path fill="#ffffff" d="M 411.011719 488.796875 L 411.011719 494.804688 L 416.59375 494.804688 L 416.59375 487.8125 L 411.011719 487.8125 Z M 411.011719 488.796875 " fill-opacity="1" fill-rule="nonzero"/><path fill="#ffffff" d="M 422.160156 488.796875 L 422.160156 494.804688 L 427.746094 494.804688 L 427.746094 487.8125 L 422.160156 487.8125 Z M 422.160156 488.796875 " fill-opacity="1" fill-rule="nonzero"/><path fill="#ffffff" d="M 433.328125 488.796875 L 433.328125 494.804688 L 438.898438 494.804688 L 438.898438 487.8125 L 433.328125 487.8125 Z M 433.328125 488.796875 " fill-opacity="1" fill-rule="nonzero"/><path fill="#ffffff" d="M 444.480469 487.8125 L 444.480469 494.804688 L 579.507812 494.804688 L 579.507812 487.8125 Z M 444.480469 487.8125 " fill-opacity="1" fill-rule="nonzero"/><path fill="#ffffff" d="M 855.515625 483.214844 L 880.140625 458.589844 L 880.140625 365.707031 L 874.558594 371.277344 L 874.558594 432.160156 L 868.972656 437.746094 L 868.972656 453.980469 L 850.90625 472.0625 L 834.65625 472.0625 L 829.085938 477.648438 L 768.203125 477.648438 L 762.621094 483.214844 Z M 855.515625 483.214844 " fill-opacity="1" fill-rule="nonzero"/><g clip-path="url(#f2525229f7)"><path fill="#ffffff" d="M 620.171875 487.675781 L 620.171875 487.8125 L 618.5625 487.8125 L 618.5625 494.804688 L 620.171875 494.804688 L 620.171875 495.457031 L 657.871094 495.457031 L 657.871094 487.160156 L 620.171875 487.160156 Z M 620.171875 487.675781 " fill-opacity="1" fill-rule="nonzero"/></g><path fill="#ffffff" d="M 607.394531 488.796875 L 607.394531 494.804688 L 612.980469 494.804688 L 612.980469 487.8125 L 607.394531 487.8125 Z M 607.394531 488.796875 " fill-opacity="1" fill-rule="nonzero"/><path fill="#ffffff" d="M 596.246094 488.796875 L 596.246094 494.804688 L 601.828125 494.804688 L 601.828125 487.8125 L 596.246094 487.8125 Z M 596.246094 488.796875 " fill-opacity="1" fill-rule="nonzero"/><path fill="#ffffff" d="M 585.09375 488.796875 L 585.09375 494.804688 L 590.660156 494.804688 L 590.660156 487.8125 L 585.09375 487.8125 Z M 585.09375 488.796875 " fill-opacity="1" fill-rule="nonzero"/></svg>