<svg xmlns="http://www.w3.org/2000/svg" xmlns:xlink="http://www.w3.org/1999/xlink" zoomAndPan="magnify" preserveAspectRatio="xMidYMid meet" version="1.0" viewBox="0 5.93 1024 564.07"><defs><clipPath id="f2d82f4d25"><path d="M 0 5.933594 L 1024 5.933594 L 1024 570 L 0 570 Z M 0 5.933594 " clip-rule="nonzero"/></clipPath></defs><path fill="#ffffff" d="M 7.78125 62.019531 L 7.78125 56.757812 L 11.507812 53.050781 L 31.804688 32.753906 L 31.804688 19.972656 L 22.898438 28.882812 L 4.339844 47.4375 L 0 51.78125 L 0 116.167969 L 7.78125 108.386719 Z M 7.78125 62.019531 " fill-opacity="1" fill-rule="nonzero"/><path fill="#ffffff" d="M 6.675781 241.097656 L 14.847656 249.246094 L 16.300781 250.703125 L 16.324219 250.742188 L 16.324219 236.078125 L 14.847656 234.605469 L 6.675781 226.433594 Z M 6.675781 241.097656 " fill-opacity="1" fill-rule="nonzero"/><path fill="#ffffff" d="M 16.300781 225.550781 L 16.324219 225.59375 L 16.324219 210.929688 L 16.300781 210.890625 L 14.847656 209.433594 L 6.675781 201.285156 L 6.675781 215.949219 L 14.847656 224.097656 Z M 16.300781 225.550781 " fill-opacity="1" fill-rule="nonzero"/><path fill="#ffffff" d="M 365.445312 16.347656 L 369.152344 16.347656 L 369.152344 26.734375 L 365.445312 26.734375 Z M 365.445312 16.347656 " fill-opacity="1" fill-rule="nonzero"/><path fill="#ffffff" d="M 372.878906 16.347656 L 376.585938 16.347656 L 376.585938 26.734375 L 372.878906 26.734375 Z M 372.878906 16.347656 " fill-opacity="1" fill-rule="nonzero"/><path fill="#ffffff" d="M 358.03125 16.347656 L 361.738281 16.347656 L 361.738281 26.734375 L 358.03125 26.734375 Z M 358.03125 16.347656 " fill-opacity="1" fill-rule="nonzero"/><path fill="#ffffff" d="M 387.707031 16.347656 L 391.414062 16.347656 L 391.414062 26.734375 L 387.707031 26.734375 Z M 387.707031 16.347656 " fill-opacity="1" fill-rule="nonzero"/><path fill="#ffffff" d="M 380.292969 16.347656 L 384 16.347656 L 384 26.734375 L 380.292969 26.734375 Z M 380.292969 16.347656 " fill-opacity="1" fill-rule="nonzero"/><path fill="#ffffff" d="M 395.121094 16.347656 L 398.828125 16.347656 L 398.828125 26.734375 L 395.121094 26.734375 Z M 395.121094 16.347656 " fill-opacity="1" fill-rule="nonzero"/><path fill="#ffffff" d="M 350.617188 16.347656 L 354.324219 16.347656 L 354.324219 26.734375 L 350.617188 26.734375 Z M 350.617188 16.347656 " fill-opacity="1" fill-rule="nonzero"/><path fill="#ffffff" d="M 343.183594 16.347656 L 346.890625 16.347656 L 346.890625 26.734375 L 343.183594 26.734375 Z M 343.183594 16.347656 " fill-opacity="1" fill-rule="nonzero"/><path fill="#ffffff" d="M 313.507812 16.347656 L 317.214844 16.347656 L 317.214844 26.734375 L 313.507812 26.734375 Z M 313.507812 16.347656 " fill-opacity="1" fill-rule="nonzero"/><path fill="#ffffff" d="M 298.660156 16.347656 L 302.367188 16.347656 L 302.367188 26.734375 L 298.660156 26.734375 Z M 298.660156 16.347656 " fill-opacity="1" fill-rule="nonzero"/><path fill="#ffffff" d="M 306.09375 16.347656 L 309.800781 16.347656 L 309.800781 26.734375 L 306.09375 26.734375 Z M 306.09375 16.347656 " fill-opacity="1" fill-rule="nonzero"/><path fill="#ffffff" d="M 335.769531 16.347656 L 339.476562 16.347656 L 339.476562 26.734375 L 335.769531 26.734375 Z M 335.769531 16.347656 " fill-opacity="1" fill-rule="nonzero"/><path fill="#ffffff" d="M 320.921875 16.347656 L 324.628906 16.347656 L 324.628906 26.734375 L 320.921875 26.734375 Z M 320.921875 16.347656 " fill-opacity="1" fill-rule="nonzero"/><path fill="#ffffff" d="M 402.554688 16.347656 L 406.261719 16.347656 L 406.261719 26.734375 L 402.554688 26.734375 Z M 402.554688 16.347656 " fill-opacity="1" fill-rule="nonzero"/><path fill="#ffffff" d="M 328.355469 16.347656 L 332.0625 16.347656 L 332.0625 26.734375 L 328.355469 26.734375 Z M 328.355469 16.347656 " fill-opacity="1" fill-rule="nonzero"/><path fill="#ffffff" d="M 491.601562 16.347656 L 495.308594 16.347656 L 495.308594 26.734375 L 491.601562 26.734375 Z M 491.601562 16.347656 " fill-opacity="1" fill-rule="nonzero"/><path fill="#ffffff" d="M 484.167969 16.347656 L 487.875 16.347656 L 487.875 26.734375 L 484.167969 26.734375 Z M 484.167969 16.347656 " fill-opacity="1" fill-rule="nonzero"/><path fill="#ffffff" d="M 469.339844 16.347656 L 473.046875 16.347656 L 473.046875 26.734375 L 469.339844 26.734375 Z M 469.339844 16.347656 " fill-opacity="1" fill-rule="nonzero"/><path fill="#ffffff" d="M 476.753906 16.347656 L 480.460938 16.347656 L 480.460938 26.734375 L 476.753906 26.734375 Z M 476.753906 16.347656 " fill-opacity="1" fill-rule="nonzero"/><path fill="#ffffff" d="M 291.246094 16.472656 L 291.246094 26.628906 L 291.347656 26.734375 L 294.953125 26.734375 L 294.953125 16.347656 L 291.347656 16.347656 Z M 291.246094 16.472656 " fill-opacity="1" fill-rule="nonzero"/><path fill="#ffffff" d="M 506.429688 16.347656 L 510.136719 16.347656 L 510.136719 26.734375 L 506.429688 26.734375 Z M 506.429688 16.347656 " fill-opacity="1" fill-rule="nonzero"/><path fill="#ffffff" d="M 499.015625 16.347656 L 502.722656 16.347656 L 502.722656 26.734375 L 499.015625 26.734375 Z M 499.015625 16.347656 " fill-opacity="1" fill-rule="nonzero"/><path fill="#ffffff" d="M 439.644531 16.347656 L 443.351562 16.347656 L 443.351562 26.734375 L 439.644531 26.734375 Z M 439.644531 16.347656 " fill-opacity="1" fill-rule="nonzero"/><path fill="#ffffff" d="M 424.816406 16.347656 L 428.523438 16.347656 L 428.523438 26.734375 L 424.816406 26.734375 Z M 424.816406 16.347656 " fill-opacity="1" fill-rule="nonzero"/><path fill="#ffffff" d="M 432.230469 16.347656 L 435.9375 16.347656 L 435.9375 26.734375 L 432.230469 26.734375 Z M 432.230469 16.347656 " fill-opacity="1" fill-rule="nonzero"/><path fill="#ffffff" d="M 417.382812 16.347656 L 421.089844 16.347656 L 421.089844 26.734375 L 417.382812 26.734375 Z M 417.382812 16.347656 " fill-opacity="1" fill-rule="nonzero"/><path fill="#ffffff" d="M 461.90625 16.347656 L 465.613281 16.347656 L 465.613281 26.734375 L 461.90625 26.734375 Z M 461.90625 16.347656 " fill-opacity="1" fill-rule="nonzero"/><path fill="#ffffff" d="M 454.492188 16.347656 L 458.199219 16.347656 L 458.199219 26.734375 L 454.492188 26.734375 Z M 454.492188 16.347656 " fill-opacity="1" fill-rule="nonzero"/><path fill="#ffffff" d="M 409.96875 16.347656 L 413.675781 16.347656 L 413.675781 26.734375 L 409.96875 26.734375 Z M 409.96875 16.347656 " fill-opacity="1" fill-rule="nonzero"/><path fill="#ffffff" d="M 447.078125 16.347656 L 450.785156 16.347656 L 450.785156 26.734375 L 447.078125 26.734375 Z M 447.078125 16.347656 " fill-opacity="1" fill-rule="nonzero"/><path fill="#ffffff" d="M 7.78125 519.152344 L 7.78125 467.523438 L 0 459.742188 L 0 524.128906 L 4.339844 528.472656 L 22.898438 547.027344 L 31.804688 555.9375 L 31.804688 543.15625 L 11.507812 522.859375 Z M 7.78125 519.152344 " fill-opacity="1" fill-rule="nonzero"/><path fill="#ffffff" d="M 14.847656 326.664062 L 6.675781 334.8125 L 6.675781 349.476562 L 14.847656 341.324219 L 16.324219 339.832031 L 16.324219 325.167969 L 16.300781 325.207031 Z M 14.847656 326.664062 " fill-opacity="1" fill-rule="nonzero"/><path fill="#ffffff" d="M 6.675781 374.625 L 14.847656 366.476562 L 16.300781 365.019531 L 16.324219 364.980469 L 16.324219 350.316406 L 16.300781 350.359375 L 14.847656 351.8125 L 6.675781 359.960938 Z M 6.675781 374.625 " fill-opacity="1" fill-rule="nonzero"/><path fill="#ffffff" d="M 292.882812 552.882812 L 291.410156 554.359375 L 292.882812 555.855469 L 496.167969 555.855469 L 494.695312 554.359375 L 496.167969 552.882812 Z M 292.882812 552.882812 " fill-opacity="1" fill-rule="nonzero"/><path fill="#ffffff" d="M 512 547.539062 L 505.179688 554.359375 L 512 561.179688 L 518.820312 554.359375 Z M 508.335938 554.359375 L 512 550.753906 L 515.667969 554.421875 L 512 558.046875 Z M 508.335938 554.359375 " fill-opacity="1" fill-rule="nonzero"/><g clip-path="url(#f2d82f4d25)"><path fill="#ffffff" d="M 1017.324219 385.113281 L 1007.675781 375.464844 L 1007.675781 394.757812 L 1001.738281 400.699219 L 1001.738281 514.914062 L 968.96875 547.683594 L 854.773438 547.683594 L 848.835938 553.621094 L 767.550781 553.621094 L 755.9375 542.007812 L 268.0625 542.007812 L 256.449219 553.621094 L 175.164062 553.621094 L 169.226562 547.683594 L 55.007812 547.683594 L 22.242188 514.914062 L 22.242188 400.699219 L 16.382812 394.757812 L 16.382812 375.464844 L 14.929688 376.921875 L 6.738281 385.113281 L 6.738281 416.015625 L 0 422.714844 L 0 454.5 L 11.507812 466.007812 L 11.507812 517.636719 L 35.511719 541.640625 L 35.511719 559.664062 L 45.753906 569.902344 L 98.46875 569.902344 L 113.316406 555.054688 L 118.578125 555.054688 L 103.730469 569.902344 L 115.546875 569.902344 L 130.394531 555.054688 L 135.660156 555.054688 L 120.832031 569.921875 L 132.648438 569.921875 L 147.457031 555.097656 L 152.71875 555.097656 L 137.871094 569.945312 L 149.402344 569.945312 L 164.25 555.097656 L 256.410156 555.097656 L 268.0625 566.75 L 755.9375 566.75 L 767.589844 555.097656 L 859.75 555.097656 L 874.597656 569.945312 L 886.128906 569.945312 L 871.28125 555.097656 L 876.542969 555.097656 L 891.390625 569.945312 L 903.167969 569.945312 L 888.320312 555.097656 L 893.582031 555.097656 L 908.429688 569.945312 L 920.25 569.945312 L 905.402344 555.097656 L 910.664062 555.097656 L 925.511719 569.945312 L 978.1875 569.945312 L 988.425781 559.703125 L 988.425781 541.683594 L 1012.429688 517.679688 L 1012.429688 465.988281 L 1024 454.5 L 1024 422.714844 L 1017.324219 416.035156 Z M 742.359375 555.097656 L 734.167969 563.289062 L 289.75 563.289062 L 281.558594 555.097656 L 280.84375 554.378906 L 289.75 545.46875 L 734.167969 545.46875 L 743.074219 554.378906 Z M 1012.492188 109.921875 L 1012.492188 58.292969 L 988.488281 34.289062 L 988.488281 16.226562 L 978.246094 5.988281 L 925.53125 5.988281 L 910.683594 20.835938 L 905.421875 20.835938 L 920.269531 5.988281 L 908.453125 5.988281 L 893.605469 20.835938 L 888.339844 20.835938 L 903.167969 5.988281 L 891.351562 5.988281 L 876.542969 20.835938 L 871.28125 20.835938 L 886.128906 5.988281 L 874.597656 5.988281 L 859.75 20.835938 L 767.589844 20.835938 L 755.9375 9.179688 L 268.0625 9.179688 L 256.410156 20.835938 L 164.25 20.835938 L 149.402344 5.988281 L 137.871094 5.988281 L 152.71875 20.835938 L 147.457031 20.835938 L 132.609375 5.988281 L 120.832031 5.988281 L 135.679688 20.835938 L 130.375 20.835938 L 115.546875 5.988281 L 103.730469 5.988281 L 118.578125 20.835938 L 113.316406 20.835938 L 98.46875 5.988281 L 45.792969 5.988281 L 35.554688 16.226562 L 35.554688 34.25 L 11.507812 58.292969 L 11.507812 109.921875 L 0 121.433594 L 0 153.195312 L 6.675781 159.875 L 6.675781 190.796875 L 16.324219 200.445312 L 16.382812 200.445312 L 16.382812 181.152344 L 22.324219 175.210938 L 22.324219 60.996094 L 55.089844 28.226562 L 169.226562 28.226562 L 175.164062 22.371094 L 256.449219 22.371094 L 268.0625 33.984375 L 755.9375 33.984375 L 767.550781 22.371094 L 848.835938 22.371094 L 854.773438 28.308594 L 968.992188 28.308594 L 1001.757812 61.078125 L 1001.757812 175.210938 L 1007.699219 181.152344 L 1007.699219 200.445312 L 1009.152344 198.988281 L 1017.34375 190.796875 L 1017.34375 159.875 L 1024 153.195312 L 1024 121.433594 Z M 742.316406 22.371094 L 734.125 30.5625 L 289.710938 30.5625 L 280.761719 21.613281 L 289.667969 12.703125 L 734.085938 12.703125 L 742.992188 21.613281 Z M 1012.511719 274.007812 L 1017.324219 269.195312 L 1017.324219 251.601562 L 1009.132812 259.796875 L 1007.65625 261.269531 L 1007.65625 314.722656 L 1009.109375 316.175781 L 1017.304688 324.367188 L 1017.304688 306.777344 L 1012.492188 301.964844 Z M 11.488281 301.921875 L 6.675781 306.734375 L 6.675781 324.328125 L 16.324219 314.679688 L 16.382812 314.679688 L 16.382812 261.230469 L 14.910156 259.753906 L 6.71875 251.5625 L 6.71875 269.15625 L 11.53125 273.96875 Z M 11.488281 301.921875 " fill-opacity="1" fill-rule="nonzero"/></g><path fill="#ffffff" d="M 1019.660156 47.4375 L 992.195312 19.972656 L 992.195312 32.753906 L 1012.492188 53.050781 L 1016.21875 56.757812 L 1016.21875 108.386719 L 1024 116.167969 L 1024 51.78125 Z M 1019.660156 47.4375 " fill-opacity="1" fill-rule="nonzero"/><path fill="#ffffff" d="M 1009.152344 249.246094 L 1017.324219 241.097656 L 1017.324219 226.433594 L 1009.152344 234.605469 L 1007.675781 236.078125 L 1007.675781 250.742188 L 1007.699219 250.703125 Z M 1009.152344 249.246094 " fill-opacity="1" fill-rule="nonzero"/><path fill="#ffffff" d="M 1017.324219 201.285156 L 1009.152344 209.433594 L 1007.699219 210.890625 L 1007.675781 210.929688 L 1007.675781 225.59375 L 1007.699219 225.550781 L 1009.152344 224.097656 L 1017.324219 215.949219 Z M 1017.324219 201.285156 " fill-opacity="1" fill-rule="nonzero"/><path fill="#ffffff" d="M 654.847656 16.347656 L 658.554688 16.347656 L 658.554688 26.734375 L 654.847656 26.734375 Z M 654.847656 16.347656 " fill-opacity="1" fill-rule="nonzero"/><path fill="#ffffff" d="M 647.414062 16.347656 L 651.121094 16.347656 L 651.121094 26.734375 L 647.414062 26.734375 Z M 647.414062 16.347656 " fill-opacity="1" fill-rule="nonzero"/><path fill="#ffffff" d="M 662.261719 16.347656 L 665.96875 16.347656 L 665.96875 26.734375 L 662.261719 26.734375 Z M 662.261719 16.347656 " fill-opacity="1" fill-rule="nonzero"/><path fill="#ffffff" d="M 632.585938 16.347656 L 636.292969 16.347656 L 636.292969 26.734375 L 632.585938 26.734375 Z M 632.585938 16.347656 " fill-opacity="1" fill-rule="nonzero"/><path fill="#ffffff" d="M 640 16.347656 L 643.707031 16.347656 L 643.707031 26.734375 L 640 26.734375 Z M 640 16.347656 " fill-opacity="1" fill-rule="nonzero"/><path fill="#ffffff" d="M 625.152344 16.347656 L 628.859375 16.347656 L 628.859375 26.734375 L 625.152344 26.734375 Z M 625.152344 16.347656 " fill-opacity="1" fill-rule="nonzero"/><path fill="#ffffff" d="M 669.675781 16.347656 L 673.382812 16.347656 L 673.382812 26.734375 L 669.675781 26.734375 Z M 669.675781 16.347656 " fill-opacity="1" fill-rule="nonzero"/><path fill="#ffffff" d="M 677.109375 16.347656 L 680.816406 16.347656 L 680.816406 26.734375 L 677.109375 26.734375 Z M 677.109375 16.347656 " fill-opacity="1" fill-rule="nonzero"/><path fill="#ffffff" d="M 706.785156 16.347656 L 710.492188 16.347656 L 710.492188 26.734375 L 706.785156 26.734375 Z M 706.785156 16.347656 " fill-opacity="1" fill-rule="nonzero"/><path fill="#ffffff" d="M 721.632812 16.347656 L 725.339844 16.347656 L 725.339844 26.734375 L 721.632812 26.734375 Z M 721.632812 16.347656 " fill-opacity="1" fill-rule="nonzero"/><path fill="#ffffff" d="M 714.199219 16.347656 L 717.90625 16.347656 L 717.90625 26.734375 L 714.199219 26.734375 Z M 714.199219 16.347656 " fill-opacity="1" fill-rule="nonzero"/><path fill="#ffffff" d="M 684.523438 16.347656 L 688.230469 16.347656 L 688.230469 26.734375 L 684.523438 26.734375 Z M 684.523438 16.347656 " fill-opacity="1" fill-rule="nonzero"/><path fill="#ffffff" d="M 699.371094 16.347656 L 703.078125 16.347656 L 703.078125 26.734375 L 699.371094 26.734375 Z M 699.371094 16.347656 " fill-opacity="1" fill-rule="nonzero"/><path fill="#ffffff" d="M 617.738281 16.347656 L 621.445312 16.347656 L 621.445312 26.734375 L 617.738281 26.734375 Z M 617.738281 16.347656 " fill-opacity="1" fill-rule="nonzero"/><path fill="#ffffff" d="M 691.9375 16.347656 L 695.644531 16.347656 L 695.644531 26.734375 L 691.9375 26.734375 Z M 691.9375 16.347656 " fill-opacity="1" fill-rule="nonzero"/><path fill="#ffffff" d="M 528.691406 16.347656 L 532.398438 16.347656 L 532.398438 26.734375 L 528.691406 26.734375 Z M 528.691406 16.347656 " fill-opacity="1" fill-rule="nonzero"/><path fill="#ffffff" d="M 536.125 16.347656 L 539.832031 16.347656 L 539.832031 26.734375 L 536.125 26.734375 Z M 536.125 16.347656 " fill-opacity="1" fill-rule="nonzero"/><path fill="#ffffff" d="M 550.953125 16.347656 L 554.660156 16.347656 L 554.660156 26.734375 L 550.953125 26.734375 Z M 550.953125 16.347656 " fill-opacity="1" fill-rule="nonzero"/><path fill="#ffffff" d="M 543.539062 16.347656 L 547.246094 16.347656 L 547.246094 26.734375 L 543.539062 26.734375 Z M 543.539062 16.347656 " fill-opacity="1" fill-rule="nonzero"/><path fill="#ffffff" d="M 729.046875 16.347656 L 729.046875 26.734375 L 732.652344 26.734375 L 732.753906 26.628906 L 732.753906 16.472656 L 732.652344 16.347656 Z M 729.046875 16.347656 " fill-opacity="1" fill-rule="nonzero"/><path fill="#ffffff" d="M 513.863281 16.347656 L 517.570312 16.347656 L 517.570312 26.734375 L 513.863281 26.734375 Z M 513.863281 16.347656 " fill-opacity="1" fill-rule="nonzero"/><path fill="#ffffff" d="M 521.277344 16.347656 L 524.984375 16.347656 L 524.984375 26.734375 L 521.277344 26.734375 Z M 521.277344 16.347656 " fill-opacity="1" fill-rule="nonzero"/><path fill="#ffffff" d="M 580.628906 16.347656 L 584.335938 16.347656 L 584.335938 26.734375 L 580.628906 26.734375 Z M 580.628906 16.347656 " fill-opacity="1" fill-rule="nonzero"/><path fill="#ffffff" d="M 595.476562 16.347656 L 599.183594 16.347656 L 599.183594 26.734375 L 595.476562 26.734375 Z M 595.476562 16.347656 " fill-opacity="1" fill-rule="nonzero"/><path fill="#ffffff" d="M 588.0625 16.347656 L 591.769531 16.347656 L 591.769531 26.734375 L 588.0625 26.734375 Z M 588.0625 16.347656 " fill-opacity="1" fill-rule="nonzero"/><path fill="#ffffff" d="M 602.890625 16.347656 L 606.597656 16.347656 L 606.597656 26.734375 L 602.890625 26.734375 Z M 602.890625 16.347656 " fill-opacity="1" fill-rule="nonzero"/><path fill="#ffffff" d="M 558.367188 16.347656 L 562.074219 16.347656 L 562.074219 26.734375 L 558.367188 26.734375 Z M 558.367188 16.347656 " fill-opacity="1" fill-rule="nonzero"/><path fill="#ffffff" d="M 565.800781 16.347656 L 569.507812 16.347656 L 569.507812 26.734375 L 565.800781 26.734375 Z M 565.800781 16.347656 " fill-opacity="1" fill-rule="nonzero"/><path fill="#ffffff" d="M 610.324219 16.347656 L 614.03125 16.347656 L 614.03125 26.734375 L 610.324219 26.734375 Z M 610.324219 16.347656 " fill-opacity="1" fill-rule="nonzero"/><path fill="#ffffff" d="M 573.214844 16.347656 L 576.921875 16.347656 L 576.921875 26.734375 L 573.214844 26.734375 Z M 573.214844 16.347656 " fill-opacity="1" fill-rule="nonzero"/><path fill="#ffffff" d="M 1016.21875 513.910156 L 1016.21875 519.152344 L 1012.492188 522.859375 L 992.195312 543.15625 L 992.195312 555.9375 L 1019.660156 528.472656 L 1024 524.128906 L 1024 459.742188 L 1016.21875 467.523438 Z M 1016.21875 513.910156 " fill-opacity="1" fill-rule="nonzero"/><path fill="#ffffff" d="M 1017.324219 334.8125 L 1009.152344 326.664062 L 1007.699219 325.207031 L 1007.675781 325.167969 L 1007.675781 339.832031 L 1009.152344 341.324219 L 1017.324219 349.476562 Z M 1017.324219 334.8125 " fill-opacity="1" fill-rule="nonzero"/><path fill="#ffffff" d="M 1007.699219 350.359375 L 1007.675781 350.316406 L 1007.675781 364.980469 L 1007.699219 365.019531 L 1009.152344 366.476562 L 1017.324219 374.625 L 1017.324219 359.960938 L 1009.152344 351.8125 Z M 1007.699219 350.359375 " fill-opacity="1" fill-rule="nonzero"/><path fill="#ffffff" d="M 731.117188 555.855469 L 732.589844 554.359375 L 731.117188 552.882812 L 527.832031 552.882812 L 529.304688 554.359375 L 527.832031 555.855469 Z M 731.117188 555.855469 " fill-opacity="1" fill-rule="nonzero"/></svg>